<mxfile host="app.diagrams.net" agent="Mozilla/5.0 (Windows NT 10.0; Win64; x64) AppleWebKit/537.36 (KHTML, like Gecko) Chrome/138.0.0.0 Safari/537.36 Edg/138.0.0.0" version="28.0.7">
  <diagram name="第 1 页" id="Wp0KTU-oNToM9_4ccD3K">
    <mxGraphModel dx="1828" dy="1044" grid="1" gridSize="10" guides="1" tooltips="1" connect="1" arrows="1" fold="1" page="1" pageScale="1" pageWidth="827" pageHeight="1169" math="0" shadow="0">
      <root>
        <mxCell id="0" />
        <mxCell id="1" parent="0" />
        <mxCell id="vRyTjnGHBHazUNlwQHND-1" value="Crane Area" style="swimlane;whiteSpace=wrap;html=1;" parent="1" vertex="1">
          <mxGeometry x="740" y="340" width="340" height="330" as="geometry" />
        </mxCell>
        <mxCell id="jamy30eILKTPIi6HEWAq-1" value="" style="group;shadow=0;" vertex="1" connectable="0" parent="vRyTjnGHBHazUNlwQHND-1">
          <mxGeometry x="120" y="50" width="130" height="270" as="geometry" />
        </mxCell>
        <mxCell id="jamy30eILKTPIi6HEWAq-2" value="" style="rounded=0;whiteSpace=wrap;html=1;shadow=0;" vertex="1" parent="jamy30eILKTPIi6HEWAq-1">
          <mxGeometry width="130" height="270" as="geometry" />
        </mxCell>
        <mxCell id="jamy30eILKTPIi6HEWAq-3" value="Controller" style="shape=cube;whiteSpace=wrap;html=1;boundedLbl=1;backgroundOutline=1;darkOpacity=0.05;darkOpacity2=0.1;shadow=0;" vertex="1" parent="jamy30eILKTPIi6HEWAq-1">
          <mxGeometry x="20" y="60" width="90" height="40" as="geometry" />
        </mxCell>
        <mxCell id="jamy30eILKTPIi6HEWAq-4" value="Controller" style="shape=cube;whiteSpace=wrap;html=1;boundedLbl=1;backgroundOutline=1;darkOpacity=0.05;darkOpacity2=0.1;shadow=0;" vertex="1" parent="jamy30eILKTPIi6HEWAq-1">
          <mxGeometry x="20" y="140" width="90" height="40" as="geometry" />
        </mxCell>
        <mxCell id="jamy30eILKTPIi6HEWAq-5" value="Controller" style="shape=cube;whiteSpace=wrap;html=1;boundedLbl=1;backgroundOutline=1;darkOpacity=0.05;darkOpacity2=0.1;shadow=0;" vertex="1" parent="jamy30eILKTPIi6HEWAq-1">
          <mxGeometry x="20" y="220" width="90" height="40" as="geometry" />
        </mxCell>
        <mxCell id="jamy30eILKTPIi6HEWAq-6" value="QC 0&lt;span style=&quot;background-color: transparent; color: light-dark(rgb(0, 0, 0), rgb(255, 255, 255));&quot;&gt;01&lt;/span&gt;" style="rounded=0;whiteSpace=wrap;html=1;shadow=0;" vertex="1" parent="jamy30eILKTPIi6HEWAq-1">
          <mxGeometry width="130" height="20" as="geometry" />
        </mxCell>
        <mxCell id="jamy30eILKTPIi6HEWAq-7" value="PT PH" style="rounded=0;whiteSpace=wrap;html=1;shadow=0;" vertex="1" parent="jamy30eILKTPIi6HEWAq-1">
          <mxGeometry y="20" width="130" height="20" as="geometry" />
        </mxCell>
        <mxCell id="jamy30eILKTPIi6HEWAq-8" value="Boom" style="rounded=0;whiteSpace=wrap;html=1;shadow=0;" vertex="1" parent="jamy30eILKTPIi6HEWAq-1">
          <mxGeometry y="110" width="130" height="20" as="geometry" />
        </mxCell>
        <mxCell id="jamy30eILKTPIi6HEWAq-9" value="etc." style="rounded=0;whiteSpace=wrap;html=1;shadow=0;" vertex="1" parent="jamy30eILKTPIi6HEWAq-1">
          <mxGeometry y="190" width="130" height="20" as="geometry" />
        </mxCell>
        <mxCell id="vRyTjnGHBHazUNlwQHND-151" value="DataCenter Office" style="swimlane;whiteSpace=wrap;html=1;" parent="1" vertex="1">
          <mxGeometry x="72" y="150" width="600" height="515" as="geometry" />
        </mxCell>
        <mxCell id="vRyTjnGHBHazUNlwQHND-152" value="&lt;span style=&quot;font-weight: 400;&quot;&gt;Windows Server 2019 Standard&lt;/span&gt;" style="swimlane;whiteSpace=wrap;html=1;" parent="vRyTjnGHBHazUNlwQHND-151" vertex="1">
          <mxGeometry x="30" y="45" width="540" height="450" as="geometry">
            <mxRectangle x="60" y="60" width="200" height="30" as="alternateBounds" />
          </mxGeometry>
        </mxCell>
        <mxCell id="vRyTjnGHBHazUNlwQHND-153" value="&lt;div&gt;Datacenter&lt;/div&gt;&lt;div&gt;Server&lt;/div&gt;" style="rounded=0;whiteSpace=wrap;html=1;fillColor=#dae8fc;strokeColor=#6c8ebf;" parent="vRyTjnGHBHazUNlwQHND-152" vertex="1">
          <mxGeometry x="435" y="23" width="105" height="40" as="geometry" />
        </mxCell>
        <mxCell id="vRyTjnGHBHazUNlwQHND-154" style="edgeStyle=orthogonalEdgeStyle;rounded=0;orthogonalLoop=1;jettySize=auto;html=1;exitX=0.5;exitY=0;exitDx=0;exitDy=0;entryX=0.5;entryY=1;entryDx=0;entryDy=0;fillColor=#d5e8d4;strokeColor=#82b366;" parent="vRyTjnGHBHazUNlwQHND-152" source="vRyTjnGHBHazUNlwQHND-155" target="vRyTjnGHBHazUNlwQHND-181" edge="1">
          <mxGeometry relative="1" as="geometry" />
        </mxCell>
        <mxCell id="vRyTjnGHBHazUNlwQHND-155" value="ISS-Algorithm" style="rounded=1;whiteSpace=wrap;html=1;fillColor=#f8cecc;strokeColor=#b85450;" parent="vRyTjnGHBHazUNlwQHND-152" vertex="1">
          <mxGeometry x="53.75" y="207" width="82.5" height="30" as="geometry" />
        </mxCell>
        <mxCell id="vRyTjnGHBHazUNlwQHND-156" style="edgeStyle=orthogonalEdgeStyle;rounded=0;orthogonalLoop=1;jettySize=auto;html=1;exitX=0.5;exitY=0;exitDx=0;exitDy=0;entryX=1;entryY=0.5;entryDx=0;entryDy=0;fillColor=#d5e8d4;strokeColor=#82b366;" parent="vRyTjnGHBHazUNlwQHND-152" source="vRyTjnGHBHazUNlwQHND-157" target="vRyTjnGHBHazUNlwQHND-181" edge="1">
          <mxGeometry relative="1" as="geometry" />
        </mxCell>
        <mxCell id="vRyTjnGHBHazUNlwQHND-157" value="ISS-Storage" style="rounded=1;whiteSpace=wrap;html=1;fillColor=#f8cecc;strokeColor=#b85450;" parent="vRyTjnGHBHazUNlwQHND-152" vertex="1">
          <mxGeometry x="170.75" y="207" width="82.5" height="30" as="geometry" />
        </mxCell>
        <mxCell id="vRyTjnGHBHazUNlwQHND-158" style="edgeStyle=orthogonalEdgeStyle;rounded=0;orthogonalLoop=1;jettySize=auto;html=1;exitX=0.5;exitY=0;exitDx=0;exitDy=0;entryX=1;entryY=0.5;entryDx=0;entryDy=0;fillColor=#d5e8d4;strokeColor=#82b366;" parent="vRyTjnGHBHazUNlwQHND-152" source="vRyTjnGHBHazUNlwQHND-160" target="vRyTjnGHBHazUNlwQHND-181" edge="1">
          <mxGeometry relative="1" as="geometry">
            <Array as="points">
              <mxPoint x="313.75" y="207" />
              <mxPoint x="313.75" y="152" />
            </Array>
          </mxGeometry>
        </mxCell>
        <mxCell id="vRyTjnGHBHazUNlwQHND-160" value="ISS-Platform" style="rounded=1;whiteSpace=wrap;html=1;fillColor=#f8cecc;strokeColor=#b85450;" parent="vRyTjnGHBHazUNlwQHND-152" vertex="1">
          <mxGeometry x="286.75" y="207" width="82.5" height="30" as="geometry" />
        </mxCell>
        <mxCell id="vRyTjnGHBHazUNlwQHND-161" value="ISS-Collect" style="rounded=1;whiteSpace=wrap;html=1;fillColor=#f8cecc;strokeColor=#b85450;" parent="vRyTjnGHBHazUNlwQHND-152" vertex="1">
          <mxGeometry x="403.75" y="207" width="82.5" height="30" as="geometry" />
        </mxCell>
        <mxCell id="vRyTjnGHBHazUNlwQHND-162" style="edgeStyle=orthogonalEdgeStyle;rounded=0;orthogonalLoop=1;jettySize=auto;html=1;exitX=0.5;exitY=0;exitDx=0;exitDy=0;entryX=0.25;entryY=1;entryDx=0;entryDy=0;fillColor=#e1d5e7;strokeColor=#9673a6;" parent="vRyTjnGHBHazUNlwQHND-152" source="vRyTjnGHBHazUNlwQHND-164" target="vRyTjnGHBHazUNlwQHND-157" edge="1">
          <mxGeometry relative="1" as="geometry" />
        </mxCell>
        <mxCell id="vRyTjnGHBHazUNlwQHND-163" style="edgeStyle=orthogonalEdgeStyle;rounded=0;orthogonalLoop=1;jettySize=auto;html=1;exitX=0.5;exitY=0;exitDx=0;exitDy=0;fillColor=#e1d5e7;strokeColor=#9673a6;entryX=0.379;entryY=1.018;entryDx=0;entryDy=0;entryPerimeter=0;" parent="vRyTjnGHBHazUNlwQHND-152" source="vRyTjnGHBHazUNlwQHND-164" target="vRyTjnGHBHazUNlwQHND-160" edge="1">
          <mxGeometry relative="1" as="geometry">
            <mxPoint x="313.75" y="237" as="targetPoint" />
            <Array as="points">
              <mxPoint x="164.75" y="317" />
              <mxPoint x="317.75" y="317" />
              <mxPoint x="317.75" y="237" />
            </Array>
          </mxGeometry>
        </mxCell>
        <mxCell id="vRyTjnGHBHazUNlwQHND-164" value="RabbitMQ&lt;br&gt;(3.9.21)" style="rounded=1;whiteSpace=wrap;html=1;fillColor=#d5e8d4;strokeColor=#82b366;" parent="vRyTjnGHBHazUNlwQHND-152" vertex="1">
          <mxGeometry x="123.75" y="397" width="82.5" height="30" as="geometry" />
        </mxCell>
        <mxCell id="vRyTjnGHBHazUNlwQHND-165" value="InfluxDB &lt;br&gt;(1.8.10)" style="rounded=1;whiteSpace=wrap;html=1;fillColor=#d5e8d4;strokeColor=#82b366;" parent="vRyTjnGHBHazUNlwQHND-152" vertex="1">
          <mxGeometry x="193.75" y="357" width="82.5" height="30" as="geometry" />
        </mxCell>
        <mxCell id="vRyTjnGHBHazUNlwQHND-166" value="MySQL&lt;br&gt;(5.7.39)" style="rounded=1;whiteSpace=wrap;html=1;fillColor=#d5e8d4;strokeColor=#82b366;" parent="vRyTjnGHBHazUNlwQHND-152" vertex="1">
          <mxGeometry x="333.75" y="357" width="82.5" height="30" as="geometry" />
        </mxCell>
        <mxCell id="vRyTjnGHBHazUNlwQHND-167" style="edgeStyle=orthogonalEdgeStyle;rounded=0;orthogonalLoop=1;jettySize=auto;html=1;entryX=0.5;entryY=1;entryDx=0;entryDy=0;fillColor=#ffe6cc;strokeColor=#d79b00;" parent="vRyTjnGHBHazUNlwQHND-152" source="vRyTjnGHBHazUNlwQHND-168" target="vRyTjnGHBHazUNlwQHND-161" edge="1">
          <mxGeometry relative="1" as="geometry" />
        </mxCell>
        <mxCell id="vRyTjnGHBHazUNlwQHND-168" value="MQTT&lt;br&gt;(5.0.23)" style="rounded=1;whiteSpace=wrap;html=1;fillColor=#d5e8d4;strokeColor=#82b366;" parent="vRyTjnGHBHazUNlwQHND-152" vertex="1">
          <mxGeometry x="403.75" y="397" width="82.5" height="30" as="geometry" />
        </mxCell>
        <mxCell id="vRyTjnGHBHazUNlwQHND-169" style="edgeStyle=orthogonalEdgeStyle;rounded=0;orthogonalLoop=1;jettySize=auto;html=1;exitX=0.5;exitY=0;exitDx=0;exitDy=0;entryX=0.096;entryY=0.997;entryDx=0;entryDy=0;entryPerimeter=0;fillColor=#e1d5e7;strokeColor=#9673a6;" parent="vRyTjnGHBHazUNlwQHND-152" source="vRyTjnGHBHazUNlwQHND-164" target="vRyTjnGHBHazUNlwQHND-161" edge="1">
          <mxGeometry relative="1" as="geometry" />
        </mxCell>
        <mxCell id="vRyTjnGHBHazUNlwQHND-170" style="edgeStyle=orthogonalEdgeStyle;rounded=0;orthogonalLoop=1;jettySize=auto;html=1;exitX=0.5;exitY=0;exitDx=0;exitDy=0;fillColor=#e1d5e7;strokeColor=#9673a6;" parent="vRyTjnGHBHazUNlwQHND-152" source="vRyTjnGHBHazUNlwQHND-164" edge="1">
          <mxGeometry relative="1" as="geometry">
            <mxPoint x="83.75" y="237" as="targetPoint" />
            <Array as="points">
              <mxPoint x="164.75" y="317" />
              <mxPoint x="83.75" y="317" />
              <mxPoint x="83.75" y="237" />
            </Array>
          </mxGeometry>
        </mxCell>
        <mxCell id="vRyTjnGHBHazUNlwQHND-171" value="Redis&lt;div&gt;(3.2.100)&lt;/div&gt;" style="rounded=1;whiteSpace=wrap;html=1;fillColor=#d5e8d4;strokeColor=#82b366;" parent="vRyTjnGHBHazUNlwQHND-152" vertex="1">
          <mxGeometry x="263.75" y="397" width="82.5" height="30" as="geometry" />
        </mxCell>
        <mxCell id="vRyTjnGHBHazUNlwQHND-172" value="MinIO&lt;br&gt;(2022)" style="rounded=1;whiteSpace=wrap;html=1;fillColor=#d5e8d4;strokeColor=#82b366;" parent="vRyTjnGHBHazUNlwQHND-152" vertex="1">
          <mxGeometry x="53.75" y="357" width="82.5" height="33" as="geometry" />
        </mxCell>
        <mxCell id="vRyTjnGHBHazUNlwQHND-173" style="edgeStyle=orthogonalEdgeStyle;rounded=0;orthogonalLoop=1;jettySize=auto;html=1;exitX=0.5;exitY=0;exitDx=0;exitDy=0;entryX=0.5;entryY=1;entryDx=0;entryDy=0;fillColor=#60a917;strokeColor=#2D7600;" parent="vRyTjnGHBHazUNlwQHND-152" source="vRyTjnGHBHazUNlwQHND-172" target="vRyTjnGHBHazUNlwQHND-157" edge="1">
          <mxGeometry relative="1" as="geometry">
            <Array as="points">
              <mxPoint x="94.75" y="337" />
              <mxPoint x="211.75" y="337" />
              <mxPoint x="211.75" y="237" />
            </Array>
          </mxGeometry>
        </mxCell>
        <mxCell id="vRyTjnGHBHazUNlwQHND-174" style="edgeStyle=orthogonalEdgeStyle;rounded=0;orthogonalLoop=1;jettySize=auto;html=1;exitX=0.5;exitY=0;exitDx=0;exitDy=0;entryX=0.085;entryY=1;entryDx=0;entryDy=0;entryPerimeter=0;fillColor=#60a917;strokeColor=#2D7600;" parent="vRyTjnGHBHazUNlwQHND-152" source="vRyTjnGHBHazUNlwQHND-172" target="vRyTjnGHBHazUNlwQHND-160" edge="1">
          <mxGeometry relative="1" as="geometry">
            <Array as="points">
              <mxPoint x="94.75" y="337" />
              <mxPoint x="293.75" y="337" />
            </Array>
          </mxGeometry>
        </mxCell>
        <mxCell id="vRyTjnGHBHazUNlwQHND-175" style="edgeStyle=orthogonalEdgeStyle;rounded=0;orthogonalLoop=1;jettySize=auto;html=1;exitX=0.5;exitY=0;exitDx=0;exitDy=0;entryX=0.361;entryY=1.012;entryDx=0;entryDy=0;entryPerimeter=0;" parent="vRyTjnGHBHazUNlwQHND-152" source="vRyTjnGHBHazUNlwQHND-166" target="vRyTjnGHBHazUNlwQHND-161" edge="1">
          <mxGeometry relative="1" as="geometry">
            <Array as="points">
              <mxPoint x="374.75" y="257" />
              <mxPoint x="433.75" y="257" />
            </Array>
          </mxGeometry>
        </mxCell>
        <mxCell id="vRyTjnGHBHazUNlwQHND-176" style="edgeStyle=orthogonalEdgeStyle;rounded=0;orthogonalLoop=1;jettySize=auto;html=1;exitX=0.5;exitY=0;exitDx=0;exitDy=0;entryX=0.812;entryY=1;entryDx=0;entryDy=0;entryPerimeter=0;" parent="vRyTjnGHBHazUNlwQHND-152" source="vRyTjnGHBHazUNlwQHND-166" target="vRyTjnGHBHazUNlwQHND-160" edge="1">
          <mxGeometry relative="1" as="geometry">
            <Array as="points">
              <mxPoint x="374.75" y="257" />
              <mxPoint x="353.75" y="257" />
            </Array>
          </mxGeometry>
        </mxCell>
        <mxCell id="vRyTjnGHBHazUNlwQHND-177" style="edgeStyle=orthogonalEdgeStyle;rounded=0;orthogonalLoop=1;jettySize=auto;html=1;exitX=0.5;exitY=0;exitDx=0;exitDy=0;entryX=0.777;entryY=1.01;entryDx=0;entryDy=0;entryPerimeter=0;fillColor=#d5e8d4;strokeColor=#82b366;" parent="vRyTjnGHBHazUNlwQHND-152" source="vRyTjnGHBHazUNlwQHND-165" target="vRyTjnGHBHazUNlwQHND-157" edge="1">
          <mxGeometry relative="1" as="geometry" />
        </mxCell>
        <mxCell id="vRyTjnGHBHazUNlwQHND-178" style="edgeStyle=orthogonalEdgeStyle;rounded=0;orthogonalLoop=1;jettySize=auto;html=1;exitX=0.5;exitY=0;exitDx=0;exitDy=0;entryX=0.57;entryY=1;entryDx=0;entryDy=0;entryPerimeter=0;" parent="vRyTjnGHBHazUNlwQHND-152" source="vRyTjnGHBHazUNlwQHND-171" target="vRyTjnGHBHazUNlwQHND-160" edge="1">
          <mxGeometry relative="1" as="geometry">
            <Array as="points">
              <mxPoint x="304.75" y="277" />
              <mxPoint x="333.75" y="277" />
            </Array>
          </mxGeometry>
        </mxCell>
        <mxCell id="vRyTjnGHBHazUNlwQHND-179" style="edgeStyle=orthogonalEdgeStyle;rounded=0;orthogonalLoop=1;jettySize=auto;html=1;exitX=0.5;exitY=0;exitDx=0;exitDy=0;" parent="vRyTjnGHBHazUNlwQHND-152" source="vRyTjnGHBHazUNlwQHND-171" edge="1">
          <mxGeometry relative="1" as="geometry">
            <mxPoint x="246.75" y="237" as="targetPoint" />
            <Array as="points">
              <mxPoint x="304.75" y="277" />
              <mxPoint x="246.75" y="277" />
            </Array>
          </mxGeometry>
        </mxCell>
        <mxCell id="vRyTjnGHBHazUNlwQHND-180" style="edgeStyle=orthogonalEdgeStyle;rounded=0;orthogonalLoop=1;jettySize=auto;html=1;exitX=0.5;exitY=0;exitDx=0;exitDy=0;entryX=0.693;entryY=1.01;entryDx=0;entryDy=0;entryPerimeter=0;fillColor=#d5e8d4;strokeColor=#82b366;" parent="vRyTjnGHBHazUNlwQHND-152" source="vRyTjnGHBHazUNlwQHND-165" target="vRyTjnGHBHazUNlwQHND-155" edge="1">
          <mxGeometry relative="1" as="geometry" />
        </mxCell>
        <mxCell id="vRyTjnGHBHazUNlwQHND-181" value="Nginx&lt;br&gt;(1.22.1)" style="rounded=1;whiteSpace=wrap;html=1;fillColor=#d5e8d4;strokeColor=#82b366;" parent="vRyTjnGHBHazUNlwQHND-152" vertex="1">
          <mxGeometry x="53.75" y="137" width="82.5" height="30" as="geometry" />
        </mxCell>
        <mxCell id="vRyTjnGHBHazUNlwQHND-183" value="HTTP[S]&lt;br&gt;access" style="rounded=0;whiteSpace=wrap;html=1;" parent="1" vertex="1">
          <mxGeometry x="710" y="40" width="120" height="60" as="geometry" />
        </mxCell>
        <mxCell id="vRyTjnGHBHazUNlwQHND-188" value="legend" style="swimlane;whiteSpace=wrap;html=1;" parent="1" vertex="1">
          <mxGeometry x="222" y="705" width="450" height="120" as="geometry" />
        </mxCell>
        <mxCell id="vRyTjnGHBHazUNlwQHND-189" value="M&lt;span style=&quot;background-color: transparent; color: light-dark(rgb(0, 0, 0), rgb(255, 255, 255));&quot;&gt;iddleware&lt;/span&gt;" style="rounded=1;whiteSpace=wrap;html=1;fillColor=#d5e8d4;strokeColor=#82b366;" parent="vRyTjnGHBHazUNlwQHND-188" vertex="1">
          <mxGeometry x="7.5" y="30" width="82.5" height="30" as="geometry" />
        </mxCell>
        <mxCell id="vRyTjnGHBHazUNlwQHND-190" value="Core Service" style="rounded=1;whiteSpace=wrap;html=1;fillColor=#f8cecc;strokeColor=#b85450;" parent="vRyTjnGHBHazUNlwQHND-188" vertex="1">
          <mxGeometry x="150" y="30" width="82.5" height="30" as="geometry" />
        </mxCell>
        <mxCell id="vRyTjnGHBHazUNlwQHND-191" value="Data Transport Service" style="rounded=1;whiteSpace=wrap;html=1;fillColor=#fff2cc;strokeColor=#d6b656;" parent="vRyTjnGHBHazUNlwQHND-188" vertex="1">
          <mxGeometry x="290" y="30" width="150" height="30" as="geometry" />
        </mxCell>
        <mxCell id="vRyTjnGHBHazUNlwQHND-192" value="Server" style="rounded=0;whiteSpace=wrap;html=1;fillColor=#dae8fc;strokeColor=#6c8ebf;" parent="vRyTjnGHBHazUNlwQHND-188" vertex="1">
          <mxGeometry x="370" y="70" width="70" height="30" as="geometry" />
        </mxCell>
        <mxCell id="vRyTjnGHBHazUNlwQHND-193" value="" style="endArrow=classic;startArrow=classic;html=1;rounded=0;" parent="vRyTjnGHBHazUNlwQHND-188" edge="1">
          <mxGeometry width="50" height="50" relative="1" as="geometry">
            <mxPoint x="18.75" y="80" as="sourcePoint" />
            <mxPoint x="78.75" y="80" as="targetPoint" />
          </mxGeometry>
        </mxCell>
        <mxCell id="vRyTjnGHBHazUNlwQHND-194" value="TCP/IP" style="edgeLabel;html=1;align=center;verticalAlign=middle;resizable=0;points=[];" parent="vRyTjnGHBHazUNlwQHND-193" vertex="1" connectable="0">
          <mxGeometry x="-0.1383" relative="1" as="geometry">
            <mxPoint x="4" y="10" as="offset" />
          </mxGeometry>
        </mxCell>
        <mxCell id="vRyTjnGHBHazUNlwQHND-195" value="" style="endArrow=classic;startArrow=classic;html=1;rounded=0;fillColor=#d5e8d4;strokeColor=#82b366;" parent="vRyTjnGHBHazUNlwQHND-188" edge="1">
          <mxGeometry width="50" height="50" relative="1" as="geometry">
            <mxPoint x="90" y="80" as="sourcePoint" />
            <mxPoint x="150" y="80" as="targetPoint" />
          </mxGeometry>
        </mxCell>
        <mxCell id="vRyTjnGHBHazUNlwQHND-196" value="HTTP[S]" style="edgeLabel;html=1;align=center;verticalAlign=middle;resizable=0;points=[];" parent="vRyTjnGHBHazUNlwQHND-195" vertex="1" connectable="0">
          <mxGeometry x="-0.1383" relative="1" as="geometry">
            <mxPoint x="4" y="10" as="offset" />
          </mxGeometry>
        </mxCell>
        <mxCell id="vRyTjnGHBHazUNlwQHND-197" value="" style="endArrow=classic;startArrow=classic;html=1;rounded=0;fillColor=#dae8fc;strokeColor=#6c8ebf;" parent="vRyTjnGHBHazUNlwQHND-188" edge="1">
          <mxGeometry width="50" height="50" relative="1" as="geometry">
            <mxPoint x="160" y="80" as="sourcePoint" />
            <mxPoint x="220" y="80" as="targetPoint" />
          </mxGeometry>
        </mxCell>
        <mxCell id="vRyTjnGHBHazUNlwQHND-198" value="RDP" style="edgeLabel;html=1;align=center;verticalAlign=middle;resizable=0;points=[];" parent="vRyTjnGHBHazUNlwQHND-197" vertex="1" connectable="0">
          <mxGeometry x="-0.1383" relative="1" as="geometry">
            <mxPoint x="4" y="10" as="offset" />
          </mxGeometry>
        </mxCell>
        <mxCell id="vRyTjnGHBHazUNlwQHND-199" value="" style="endArrow=classic;startArrow=classic;html=1;rounded=0;fillColor=#e1d5e7;strokeColor=#9673a6;" parent="vRyTjnGHBHazUNlwQHND-188" edge="1">
          <mxGeometry width="50" height="50" relative="1" as="geometry">
            <mxPoint x="230" y="80" as="sourcePoint" />
            <mxPoint x="290" y="80" as="targetPoint" />
          </mxGeometry>
        </mxCell>
        <mxCell id="vRyTjnGHBHazUNlwQHND-200" value="AMQP" style="edgeLabel;html=1;align=center;verticalAlign=middle;resizable=0;points=[];" parent="vRyTjnGHBHazUNlwQHND-199" vertex="1" connectable="0">
          <mxGeometry x="-0.1383" relative="1" as="geometry">
            <mxPoint x="4" y="10" as="offset" />
          </mxGeometry>
        </mxCell>
        <mxCell id="vRyTjnGHBHazUNlwQHND-201" value="" style="endArrow=classic;startArrow=classic;html=1;rounded=0;fillColor=#ffe6cc;strokeColor=#d79b00;" parent="vRyTjnGHBHazUNlwQHND-188" edge="1">
          <mxGeometry width="50" height="50" relative="1" as="geometry">
            <mxPoint x="300" y="80" as="sourcePoint" />
            <mxPoint x="360" y="80" as="targetPoint" />
          </mxGeometry>
        </mxCell>
        <mxCell id="vRyTjnGHBHazUNlwQHND-202" value="MQTT" style="edgeLabel;html=1;align=center;verticalAlign=middle;resizable=0;points=[];" parent="vRyTjnGHBHazUNlwQHND-201" vertex="1" connectable="0">
          <mxGeometry x="-0.1383" relative="1" as="geometry">
            <mxPoint x="4" y="10" as="offset" />
          </mxGeometry>
        </mxCell>
        <mxCell id="vRyTjnGHBHazUNlwQHND-207" style="edgeStyle=orthogonalEdgeStyle;rounded=0;orthogonalLoop=1;jettySize=auto;html=1;exitX=0.5;exitY=0;exitDx=0;exitDy=0;entryX=0;entryY=0.5;entryDx=0;entryDy=0;fillColor=#d5e8d4;strokeColor=#82b366;" parent="1" source="vRyTjnGHBHazUNlwQHND-181" target="vRyTjnGHBHazUNlwQHND-183" edge="1">
          <mxGeometry relative="1" as="geometry">
            <Array as="points">
              <mxPoint x="197" y="275" />
              <mxPoint x="40" y="275" />
              <mxPoint x="40" y="70" />
            </Array>
          </mxGeometry>
        </mxCell>
        <mxCell id="jamy30eILKTPIi6HEWAq-12" style="edgeStyle=orthogonalEdgeStyle;rounded=0;orthogonalLoop=1;jettySize=auto;html=1;exitX=0;exitY=0;exitDx=0;exitDy=20;exitPerimeter=0;entryX=1;entryY=0.5;entryDx=0;entryDy=0;strokeColor=#D79B00;" edge="1" parent="1" source="jamy30eILKTPIi6HEWAq-3" target="vRyTjnGHBHazUNlwQHND-168">
          <mxGeometry relative="1" as="geometry" />
        </mxCell>
        <mxCell id="jamy30eILKTPIi6HEWAq-15" value="MQTT" style="edgeLabel;html=1;align=center;verticalAlign=middle;resizable=0;points=[];" vertex="1" connectable="0" parent="jamy30eILKTPIi6HEWAq-12">
          <mxGeometry x="-0.4218" y="1" relative="1" as="geometry">
            <mxPoint x="36" y="-1" as="offset" />
          </mxGeometry>
        </mxCell>
        <mxCell id="jamy30eILKTPIi6HEWAq-13" style="edgeStyle=orthogonalEdgeStyle;rounded=0;orthogonalLoop=1;jettySize=auto;html=1;exitX=0;exitY=0;exitDx=0;exitDy=20;exitPerimeter=0;entryX=1;entryY=0.5;entryDx=0;entryDy=0;strokeColor=#D79B00;" edge="1" parent="1" source="jamy30eILKTPIi6HEWAq-4" target="vRyTjnGHBHazUNlwQHND-168">
          <mxGeometry relative="1" as="geometry" />
        </mxCell>
        <mxCell id="jamy30eILKTPIi6HEWAq-16" value="MQTT" style="edgeLabel;html=1;align=center;verticalAlign=middle;resizable=0;points=[];" vertex="1" connectable="0" parent="jamy30eILKTPIi6HEWAq-13">
          <mxGeometry x="-0.2871" y="1" relative="1" as="geometry">
            <mxPoint x="43" y="-1" as="offset" />
          </mxGeometry>
        </mxCell>
        <mxCell id="jamy30eILKTPIi6HEWAq-14" style="edgeStyle=orthogonalEdgeStyle;rounded=0;orthogonalLoop=1;jettySize=auto;html=1;exitX=0;exitY=0;exitDx=0;exitDy=20;exitPerimeter=0;entryX=1;entryY=0.5;entryDx=0;entryDy=0;strokeColor=#D79B00;" edge="1" parent="1" source="jamy30eILKTPIi6HEWAq-5" target="vRyTjnGHBHazUNlwQHND-168">
          <mxGeometry relative="1" as="geometry">
            <mxPoint x="600" y="450" as="targetPoint" />
          </mxGeometry>
        </mxCell>
        <mxCell id="jamy30eILKTPIi6HEWAq-17" value="MQTT" style="edgeLabel;html=1;align=center;verticalAlign=middle;resizable=0;points=[];" vertex="1" connectable="0" parent="jamy30eILKTPIi6HEWAq-14">
          <mxGeometry x="-0.428" relative="1" as="geometry">
            <mxPoint x="10" as="offset" />
          </mxGeometry>
        </mxCell>
      </root>
    </mxGraphModel>
  </diagram>
</mxfile>
